<svg id="ALEKS_LOGO" data-name="ALEKS LOGO" xmlns="http://www.w3.org/2000/svg" viewBox="0 0 196.58 46.55"><defs><style>.cls-1{fill:#e21a23;}.cls-2{fill:#fff;}</style></defs><title>Connect_logo_2019_RGB</title><rect class="cls-1" y="-0.01" width="46.57" height="46.57"/><polygon class="cls-2" points="15.38 15.05 14.67 7.53 12.13 15.05 9.65 15.05 6.99 7.51 6.44 15.05 3.8 15.05 4.98 3.75 8.21 3.75 11.04 11.53 13.69 3.75 16.92 3.75 18.18 15.05 15.38 15.05"/><path class="cls-2" d="M23.9,15.3a4.22,4.22,0,0,1-4.4-4.42A4.43,4.43,0,0,1,24,6.4a4.26,4.26,0,0,1,3,1L26,9.09a3,3,0,0,0-1.58-.51,2.13,2.13,0,0,0-2.2,2.25c0,1.34.66,2.29,2.05,2.29a3.77,3.77,0,0,0,1.9-.61l1,1.69a5.1,5.1,0,0,1-3.3,1.1"/><polygon class="cls-2" points="10.34 42.77 10.34 38.04 6.58 38.04 6.58 42.77 3.8 42.77 3.8 31.47 6.58 31.47 6.58 35.79 10.34 35.79 10.34 31.47 13.13 31.47 13.13 42.77 10.34 42.77"/><path class="cls-2" d="M15.47,35.52h2.72v7.24H15.47Zm1.38-1.29a1.45,1.45,0,0,1-1.44-1.47,1.44,1.44,0,1,1,1.44,1.47"/><rect class="cls-2" x="20.52" y="31.47" width="2.58" height="11.29"/><rect class="cls-2" x="25.45" y="31.47" width="2.58" height="11.29"/><path class="cls-2" d="M8.88,29.09A5.55,5.55,0,0,1,3,23.24a5.73,5.73,0,0,1,6.09-6,5.33,5.33,0,0,1,4,1.32l-1.2,1.79a4.51,4.51,0,0,0-2.64-.81,3.3,3.3,0,0,0-3.42,3.57c0,2.52,1.61,3.69,3.38,3.69a5.2,5.2,0,0,0,1.51-.2V25H8.62v-2h4.5v4.91a6.63,6.63,0,0,1-4.24,1.24"/><polygon class="cls-2" points="40.56 28.6 37.8 28.6 36.43 23.41 35.17 28.6 32.52 28.6 30.11 20.2 32.68 20.2 34 25.62 35.39 20.2 37.68 20.2 39.07 25.62 40.34 20.2 42.81 20.2 40.56 28.6"/><path class="cls-2" d="M20.37,22.16a2.49,2.49,0,0,0-2.17,1.16v5.31H15.47V20.19h2.25v1.12a3.71,3.71,0,0,1,2.81-1.38h.18l.17,0Z"/><path class="cls-2" d="M26.51,24.72c-.65,0-1.84,0-2.33.46a.92.92,0,0,0-.29.71,1,1,0,0,0,1.05,1,2.8,2.8,0,0,0,1.57-.47Zm.25,4V28a3.64,3.64,0,0,1-2.38.91,2.59,2.59,0,0,1-2.74-2.76c0-2.66,3.76-2.88,4.65-2.88h.18c0-.28.07-.79-.2-1a1.49,1.49,0,0,0-1-.27,5.23,5.23,0,0,0-1.74.33c-.16.05-.29.11-.39.15l-.84-1.65.43-.23A6.32,6.32,0,0,1,25.4,20a4,4,0,0,1,2.93,1A3.58,3.58,0,0,1,29,23.73v4.94Z"/><path d="M189.3,29.77c-1.57,1.18-2.31,1.57-3.24,1.57-.78,0-1.22-.35-1.27-1.08,0-.24,0-.69-.1-1.37l0-1V15.28h5.87V12.2h-5.87V5.74H181V12.2L178,13a8.41,8.41,0,0,0-2.28-.9,12.47,12.47,0,0,0-3.28-.44,11.1,11.1,0,0,0-11.25,8.77h-2c-.18-5.29-3.51-8.77-8.56-8.77-5.39,0-9.21,3.39-10.21,8.77H139v-2.6c0-4.16-1.91-6.17-5.82-6.17a9.36,9.36,0,0,0-5.93,2.2,21.34,21.34,0,0,0-3,3V12.2h-3.67v8.18h-2.68v-2.6c0-4.16-1.91-6.17-5.82-6.17a9.36,9.36,0,0,0-5.93,2.2,21.34,21.34,0,0,0-3,3V12.2H99.44v8.18H97.23a11.16,11.16,0,0,0-10.56-8.77c-6,0-11,5.29-11,11.7a12.14,12.14,0,0,0,1,4.79l-1.78,1.71a7.79,7.79,0,0,1-5.28,1.82c-4.74,0-7.73-3.18-7.73-8.27s3-8.42,7.44-8.42a6.9,6.9,0,0,1,5,1.91l2.11-3a9.61,9.61,0,0,0-3.68-1.81,12.39,12.39,0,0,0-3.27-.44c-6.81,0-11.6,4.95-11.6,11.94,0,6.81,4.6,11.46,11.35,11.46a13,13,0,0,0,6.17-1.52,14.27,14.27,0,0,0,1.32-.74h0l2.1-1.31A10.63,10.63,0,0,0,86.67,35c6,0,10.91-5.34,10.91-11.7v-.22h1.86V34.37h3.67V20.81c3.86-4.25,6.26-5.92,8.51-5.92a2.41,2.41,0,0,1,2.26,1.17,6.36,6.36,0,0,1,.34,2.6V34.37h10V20.81c3.87-4.25,6.26-5.92,8.51-5.92A2.41,2.41,0,0,1,135,16.06a6.36,6.36,0,0,1,.34,2.6V34.37H139V23.09h1.12v.22c0,7,4.16,11.7,10.32,11.7,2.89,0,4.75-.64,8-2.7L157,29.43c-2.4,1.66-3.82,2.2-5.77,2.2-4.47,0-7.2-3.23-7.24-8.54h16.81c0,.16,0,.31,0,.46,0,6.81,4.6,11.46,11.35,11.46a13,13,0,0,0,6.17-1.52,13.93,13.93,0,0,0,1.47-.83l-1.91-2.89a7.82,7.82,0,0,1-5.33,1.86c-4.75,0-7.74-3.18-7.74-8.27s3-8.42,7.44-8.42a6.9,6.9,0,0,1,5,1.91l1.11-1.57H181V30.06C181,33,182.69,35,185.23,35c1.76,0,3-.64,5.58-2.79ZM150.37,14.94c3,0,4.74,1.86,4.79,5.28H144.3c.83-3.42,3-5.28,6.07-5.28M86.67,31.73c-3.92,0-7-3.72-7-8.42s3-8.42,7-8.42,6.9,3.72,6.9,8.42-3,8.42-6.9,8.42m31.22-8.64h2.68v8.56h-2.68Z"/><path d="M190.92,8a2.29,2.29,0,1,1,2.29,2.28A2.28,2.28,0,0,1,190.92,8Zm.3,0a2,2,0,1,0,2-2A2,2,0,0,0,191.22,8Zm1.93.28h-.47v1h-.35V6.69h1.07a.79.79,0,0,1,.83.79.77.77,0,0,1-.67.78l.7,1h-.43ZM192.68,7V8h.72a.49.49,0,0,0,0-1Z"/></svg>